<svg id="svg" xmlns="http://www.w3.org/2000/svg" xmlns:xlink="http://www.w3.org/1999/xlink" width="400" height="400" viewBox="0, 0, 400,400"><g id="svgg"><path id="path0" d="M174.869 74.161 C 149.849 85.281,147.615 122.885,170.472 148.185 C 179.817 158.528,179.906 157.869,168.586 162.192 C 163.113 164.283,159.162 167.130,159.162 168.984 C 159.162 170.739,160.340 171.674,161.780 171.060 C 163.220 170.446,169.179 167.873,175.023 165.341 L 185.648 160.737 194.671 166.433 C 204.168 172.428,247.802 194.764,250.016 194.764 C 256.869 194.764,246.728 187.223,225.345 176.417 C 172.920 149.925,155.546 128.744,163.248 100.716 C 172.205 68.121,217.518 70.656,223.081 104.064 C 225.036 115.799,225.893 117.701,228.504 116.087 C 232.271 113.759,228.873 96.402,222.876 87.340 C 213.616 73.348,190.795 67.082,174.869 74.161 M139.036 164.924 C 137.757 165.787,135.120 169.595,133.176 173.388 C 128.576 182.365,124.652 183.655,94.766 186.011 C 60.786 188.690,53.239 194.187,65.097 207.621 C 68.899 211.929,69.273 212.027,68.001 208.377 C 64.808 199.219,64.737 197.524,67.452 195.271 C 69.004 193.983,77.687 192.257,86.748 191.436 L 103.222 189.943 102.084 209.631 C 99.517 254.054,90.618 267.031,67.578 259.948 C 37.663 250.752,34.319 245.242,50.785 232.281 C 56.832 227.522,62.094 222.788,62.478 221.761 C 65.234 214.395,40.078 230.380,35.524 238.890 C 26.253 256.211,80.975 275.979,95.327 260.492 C 104.079 251.049,111.111 226.182,113.618 195.812 C 114.070 190.326,115.036 189.443,121.227 188.851 C 127.752 188.228,128.211 188.562,126.981 193.040 C 122.989 207.573,115.375 262.495,116.959 265.326 C 119.243 269.407,119.827 268.746,136.278 243.455 C 152.765 218.109,155.582 218.017,153.705 242.883 C 151.290 274.874,168.845 275.385,186.647 243.841 C 195.531 228.100,201.047 230.427,201.047 249.917 C 201.047 268.779,205.948 272.479,217.764 262.537 L 224.330 257.012 227.467 261.490 C 231.598 267.388,237.019 267.149,244.644 260.733 C 252.949 253.745,252.662 253.468,254.298 270.071 C 256.105 288.410,260.723 295.302,268.753 291.643 C 280.727 286.187,286.050 264.912,279.876 247.189 C 277.371 240.000,277.202 237.462,279.146 236.227 C 284.716 232.687,285.594 233.851,287.934 247.878 C 290.335 262.271,297.206 266.746,314.852 265.406 C 346.016 263.041,359.476 251.120,347.777 236.247 C 343.808 231.202,321.058 217.801,316.461 217.801 C 310.546 217.801,315.207 223.591,325.416 228.925 C 348.464 240.968,350.380 248.142,332.931 257.068 C 302.339 272.717,285.300 254.000,300.972 221.962 C 306.413 210.839,310.543 205.085,314.136 203.623 C 319.240 201.546,319.253 201.487,314.660 201.270 C 310.319 201.065,309.948 200.053,309.948 188.416 C 309.948 167.474,298.070 170.622,291.036 193.428 C 289.566 198.195,286.596 203.681,284.435 205.621 C 280.785 208.897,280.759 209.289,284.058 211.135 C 287.052 212.811,287.306 214.559,285.680 222.268 L 283.751 231.414 273.289 231.414 L 262.827 231.414 263.502 224.084 C 263.873 220.052,267.458 207.330,271.468 195.812 C 282.555 163.972,282.841 160.899,274.287 165.476 C 267.979 168.852,255.497 216.307,255.497 236.915 C 255.497 246.854,242.049 263.497,235.918 261.144 C 231.941 259.618,231.051 242.723,234.475 233.718 C 235.828 230.160,235.762 227.971,234.274 227.051 C 230.312 224.603,226.103 231.428,224.803 242.408 C 223.360 254.588,214.620 265.513,208.268 263.075 C 204.873 261.772,205.151 248.953,208.780 239.496 C 209.410 237.853,206.615 233.594,202.328 229.668 C 197.327 225.086,194.764 220.880,194.764 217.252 C 194.764 214.235,193.717 211.118,192.436 210.326 C 188.498 207.893,186.137 214.181,187.197 224.279 C 188.319 234.969,184.700 242.907,173.203 254.974 C 161.338 267.426,158.384 264.827,160.059 243.415 C 162.627 210.590,152.273 209.145,132.233 239.531 C 122.469 254.337,124.162 240.891,134.787 219.254 C 151.402 185.420,153.782 154.981,139.036 164.924 M146.553 174.346 C 146.475 186.324,131.835 222.586,128.446 219.196 C 127.065 217.815,131.329 197.276,136.454 180.628 C 140.936 166.064,146.629 162.523,146.553 174.346 M307.350 190.894 C 306.236 202.481,306.467 202.080,299.692 204.167 C 294.842 205.661,294.712 205.420,295.839 197.018 C 298.395 177.958,309.142 172.240,307.350 190.894 M300.396 217.390 C 295.281 229.641,293.194 230.229,293.194 219.421 C 293.194 211.906,294.016 209.544,296.859 208.899 C 303.010 207.502,303.766 209.316,300.396 217.390 M232.461 212.565 C 232.461 214.293,233.874 215.707,235.602 215.707 C 237.330 215.707,238.743 214.293,238.743 212.565 C 238.743 210.838,237.330 209.424,235.602 209.424 C 233.874 209.424,232.461 210.838,232.461 212.565 M275.119 259.492 C 278.493 280.594,264.555 300.018,259.200 281.675 C 257.324 275.249,258.788 243.984,261.143 240.173 C 263.517 236.334,273.657 250.351,275.119 259.492 " stroke="none" fill="#000000" fill-rule="evenodd"></path></g></svg>